<svg width="27" height="28" viewBox="0 0 27 28" fill="none" xmlns="http://www.w3.org/2000/svg">
<path d="M17.1305 26.3806C15.2137 28.4904 11.8409 28.5106 9.89876 26.4239C9.03128 25.4918 9.70506 23.9988 10.9966 23.991L16.0032 23.961C17.2948 23.9533 17.9866 25.4382 17.1305 26.3806Z" fill="white"/>
<path fill-rule="evenodd" clip-rule="evenodd" d="M21.8458 23.789C20.835 24.5744 19.4074 24.3149 18.5517 23.367L15.8329 20.3552C14.7372 19.1414 12.8138 19.1414 11.7181 20.3552L8.77563 23.6148C7.94143 24.5389 6.56042 24.813 5.54744 24.0833C2.18471 21.6608 0 17.7417 0 13.3192C0 5.96321 6.04416 0 13.5 0C20.9558 0 27 5.96321 27 13.3192C27 17.5669 24.9846 21.3502 21.8458 23.789ZM11.976 17.7904C12.7864 18.7366 14.2135 18.7366 15.024 17.7904L17.5756 14.8113C18.3947 13.855 17.9723 12.3415 16.7868 11.9847C14.64 11.3385 12.3599 11.3385 10.2131 11.9847C9.0276 12.3415 8.60526 13.855 9.42434 14.8113L11.976 17.7904ZM9.50001 8.50008C9.50001 9.60465 8.60458 10.5001 7.50001 10.5001C6.39544 10.5001 5.50001 9.60465 5.50001 8.50008C5.50001 7.39551 6.39544 6.50008 7.50001 6.50008C8.60458 6.50008 9.50001 7.39551 9.50001 8.50008ZM19.5 10.5001C20.6046 10.5001 21.5 9.60465 21.5 8.50008C21.5 7.39551 20.6046 6.50008 19.5 6.50008C18.3954 6.50008 17.5 7.39551 17.5 8.50008C17.5 9.60465 18.3954 10.5001 19.5 10.5001Z" fill="white"/>
</svg>
